<?xml version="1.0" encoding="UTF-8"?>
<svg xmlns="http://www.w3.org/2000/svg" id="Layer_3" data-name="Layer 3" viewBox="0 0 64 64" width="512" height="512"><path d="M47.791,50.373l3.07-10.745A3.633,3.633,0,0,0,47.369,35H46V13a6.006,6.006,0,0,0-5-5.91V4a3,3,0,0,0-3-3H26a3,3,0,0,0-3,3V7.09A6.006,6.006,0,0,0,18,13V35H16.631a3.631,3.631,0,0,0-3.491,4.629l3.069,10.744A5,5,0,0,0,18.03,53,4.979,4.979,0,0,0,16,57v.184A2.993,2.993,0,0,0,17,63H47a2.993,2.993,0,0,0,1-5.816V57a4.979,4.979,0,0,0-2.03-4A5,5,0,0,0,47.791,50.373ZM44,13V35.059A3.572,3.572,0,0,0,41.059,38H41V18a3,3,0,0,0-2-2.816V12.816A3,3,0,0,0,41,10V9.142A4,4,0,0,1,44,13ZM25,38V27.515l14,10V38ZM37,15H27V13H37ZM26,17H38a1,1,0,0,1,1,1V30.057l-14-10V18A1,1,0,0,1,26,17ZM39,32.515v2.542L20,21.485V18.943ZM23,26.086V38h-.059A3.572,3.572,0,0,0,20,35.059V23.943ZM40.613,40l-1.334,4H24.721l-1.334-4ZM25,4a1,1,0,0,1,1-1H38a1,1,0,0,1,1,1v6a1,1,0,0,1-1,1H26a1,1,0,0,1-1-1ZM23,9.142V10a3,3,0,0,0,2,2.816v2.368A3,3,0,0,0,23,18v.628l-3-2.143V13A4,4,0,0,1,23,9.142ZM15.063,39.081A1.632,1.632,0,0,1,16.631,37h2.788A1.582,1.582,0,0,1,21,38.581a3.594,3.594,0,0,0,.184,1.133l1.867,5.6A1,1,0,0,0,24,46H40a1,1,0,0,0,.949-.684l1.867-5.6v0A3.6,3.6,0,0,0,43,38.581,1.582,1.582,0,0,1,44.581,37h2.788A1.633,1.633,0,0,1,49,38.632a1.659,1.659,0,0,1-.062.448l-3.07,10.744A3.015,3.015,0,0,1,42.983,52H21.017a3.015,3.015,0,0,1-2.885-2.176ZM47,61H17a1,1,0,0,1,0-2H47a1,1,0,0,1,0,2Zm-4-7a3,3,0,0,1,3,3H18a3,3,0,0,1,3-3H43Z"/></svg>
